<svg width="1439" height="250" viewBox="0 0 1439 250" fill="none" xmlns="http://www.w3.org/2000/svg">
<path d="M262.25 161.671V156.671C262.25 153.171 264 151.421 267.5 151.421H288.75C292.25 151.421 294 153.171 294 156.671V158.671C294 165.005 295.25 169.338 297.75 171.671C300.25 174.005 304.833 175.171 311.5 175.171H323.25C329.75 175.171 334.25 173.921 336.75 171.421C339.417 168.921 340.75 164.255 340.75 157.421V154.421C340.75 149.588 338.75 145.921 334.75 143.421C330.917 140.755 326.083 139.171 320.25 138.671C314.417 138.171 308.083 137.255 301.25 135.921C294.583 134.421 288.333 132.588 282.5 130.421C276.667 128.088 271.75 123.671 267.75 117.171C263.917 110.505 262 102.005 262 91.6714V82.9214C262 69.9214 265.667 59.838 273 52.6714C280.333 45.5047 290.5 41.9214 303.5 41.9214H328.5C341.667 41.9214 351.917 45.5047 359.25 52.6714C366.583 59.838 370.25 69.9214 370.25 82.9214V87.6714C370.25 91.1714 368.5 92.9214 365 92.9214H343.75C340.25 92.9214 338.5 91.1714 338.5 87.6714V86.1714C338.5 79.6714 337.25 75.2547 334.75 72.9214C332.25 70.588 327.667 69.4214 321 69.4214H311.25C304.417 69.4214 299.75 70.7547 297.25 73.4214C294.917 75.9214 293.75 80.9214 293.75 88.4214V93.1714C293.75 101.005 300.583 105.505 314.25 106.671C328.417 107.838 341 110.671 352 115.171C357.833 117.671 362.667 122.171 366.5 128.671C370.5 135.005 372.5 143.171 372.5 153.171V161.671C372.5 174.671 368.833 184.755 361.5 191.921C354.167 199.088 344 202.671 331 202.671H303.75C290.75 202.671 280.583 199.088 273.25 191.921C265.917 184.755 262.25 174.671 262.25 161.671ZM401.266 102.671H391.266C389.266 102.671 387.849 102.338 387.016 101.671C386.349 101.005 386.016 99.6714 386.016 97.6714V80.4214C386.016 76.9214 387.766 75.1714 391.266 75.1714H401.266C403.099 75.1714 404.016 74.2547 404.016 72.4214V48.6714C404.016 45.1714 405.849 43.4214 409.516 43.4214H430.516C434.016 43.4214 435.766 45.1714 435.766 48.6714V72.4214C435.766 74.2547 436.766 75.1714 438.766 75.1714H458.266C461.766 75.1714 463.516 76.9214 463.516 80.4214V97.6714C463.516 99.5047 463.099 100.838 462.266 101.671C461.599 102.338 460.266 102.671 458.266 102.671H438.766C436.766 102.671 435.766 103.588 435.766 105.421V160.671C435.766 165.838 436.932 169.588 439.266 171.921C441.599 174.088 445.432 175.171 450.766 175.171H460.766C464.266 175.171 466.016 176.921 466.016 180.421V197.671C466.016 199.505 465.599 200.838 464.766 201.671C464.099 202.338 462.766 202.671 460.766 202.671H445.516C432.349 202.671 422.099 199.171 414.766 192.171C407.599 185.171 404.016 175.171 404.016 162.171V105.421C404.016 103.588 403.099 102.671 401.266 102.671ZM531.4 202.671H525.4C512.234 202.671 502.067 199.171 494.9 192.171C487.734 185.171 484.15 175.088 484.15 161.921V115.921C484.15 102.755 487.734 92.6714 494.9 85.6714C502.067 78.6714 512.234 75.1714 525.4 75.1714H583.15C586.817 75.1714 588.65 76.9214 588.65 80.4214V197.421C588.65 200.921 586.817 202.671 583.15 202.671H562.15C558.65 202.671 556.9 200.921 556.9 197.421V189.171H555.9C554.067 193.671 550.817 197.088 546.15 199.421C541.484 201.588 536.567 202.671 531.4 202.671ZM556.9 156.171V105.421C556.9 103.588 555.9 102.671 553.9 102.671H530.4C525.067 102.671 521.317 103.838 519.15 106.171C516.984 108.338 515.9 112.088 515.9 117.421V160.421C515.9 165.755 516.984 169.588 519.15 171.921C521.317 174.088 525.067 175.171 530.4 175.171H539.65C551.15 175.171 556.9 168.838 556.9 156.171ZM697.295 180.421V197.671C697.295 199.505 696.878 200.838 696.045 201.671C695.378 202.338 694.045 202.671 692.045 202.671H654.795C641.628 202.671 631.462 199.171 624.295 192.171C617.128 185.171 613.545 175.088 613.545 161.921V115.921C613.545 102.755 617.128 92.6714 624.295 85.6714C631.462 78.6714 641.628 75.1714 654.795 75.1714H692.045C695.545 75.1714 697.295 76.9214 697.295 80.4214V97.6714C697.295 99.5047 696.878 100.838 696.045 101.671C695.378 102.338 694.045 102.671 692.045 102.671H659.795C654.628 102.671 650.878 103.838 648.545 106.171C646.378 108.338 645.295 112.088 645.295 117.421V160.421C645.295 165.755 646.378 169.588 648.545 171.921C650.878 174.088 654.628 175.171 659.795 175.171H692.045C695.545 175.171 697.295 176.921 697.295 180.421ZM791.828 75.1714H816.078C818.078 75.1714 819.411 75.7547 820.078 76.9214C820.745 78.088 820.495 79.588 819.328 81.4214L786.078 136.171V137.171L820.828 196.421C821.828 198.088 821.911 199.588 821.078 200.921C820.245 202.088 818.745 202.671 816.578 202.671H795.078C792.245 202.671 790.161 202.338 788.828 201.671C787.661 201.005 786.411 199.588 785.078 197.421L753.328 141.671C751.828 139.005 751.828 136.255 753.328 133.421L783.328 80.1714C785.161 76.838 787.995 75.1714 791.828 75.1714ZM745.328 202.671H724.078C720.578 202.671 718.828 200.921 718.828 197.421V32.1714C718.828 28.6714 720.578 26.9214 724.078 26.9214H745.328C748.828 26.9214 750.578 28.6714 750.578 32.1714V197.421C750.578 200.921 748.828 202.671 745.328 202.671ZM883.234 75.1714H905.234C907.734 75.1714 908.984 76.2547 908.984 78.4214V87.6714C908.984 90.0047 907.734 91.1714 905.234 91.1714H883.234C881.734 91.1714 880.984 91.9214 880.984 93.4214V199.171C880.984 201.505 879.734 202.671 877.234 202.671H866.234C863.901 202.671 862.734 201.505 862.734 199.171V93.4214C862.734 91.9214 861.901 91.1714 860.234 91.1714H845.484C843.151 91.1714 841.984 90.0047 841.984 87.6714V78.4214C841.984 76.2547 843.151 75.1714 845.484 75.1714H860.234C861.901 75.1714 862.734 74.4214 862.734 72.9214V63.6714C862.734 51.838 865.651 42.7547 871.484 36.4214C877.318 30.0881 885.818 26.9214 896.984 26.9214H905.484C907.818 26.9214 908.984 28.0047 908.984 30.1714V39.4214C908.984 41.7547 907.818 42.9214 905.484 42.9214H899.234C892.401 42.9214 887.651 44.6714 884.984 48.1714C882.318 51.5047 880.984 56.9214 880.984 64.4214V72.9214C880.984 74.4214 881.734 75.1714 883.234 75.1714ZM945.574 202.671H934.324C931.991 202.671 930.824 201.505 930.824 199.171V78.6714C930.824 76.338 931.991 75.1714 934.324 75.1714H945.574C947.908 75.1714 949.074 76.338 949.074 78.6714V88.6714H950.074C951.741 85.0047 954.908 81.838 959.574 79.1714C964.241 76.5047 969.741 75.1714 976.074 75.1714H985.824C987.991 75.1714 989.074 76.338 989.074 78.6714V87.9214C989.074 89.088 988.824 90.0047 988.324 90.6714C987.824 91.1714 986.991 91.338 985.824 91.1714H972.324C964.824 91.1714 959.074 93.4214 955.074 97.9214C951.074 102.421 949.074 108.588 949.074 116.421V199.171C949.074 201.505 947.908 202.671 945.574 202.671ZM1059.13 202.671H1046.13C1034.63 202.671 1025.55 199.421 1018.88 192.921C1012.38 186.421 1009.13 177.338 1009.13 165.671V112.171C1009.13 100.505 1012.38 91.4214 1018.88 84.9214C1025.55 78.4214 1034.63 75.1714 1046.13 75.1714H1100.38C1102.72 75.1714 1103.88 76.338 1103.88 78.6714V199.171C1103.88 201.505 1102.72 202.671 1100.38 202.671H1089.13C1086.8 202.671 1085.63 201.505 1085.63 199.171V189.421H1084.63C1080.47 198.255 1071.97 202.671 1059.13 202.671ZM1085.63 163.671V93.4214C1085.63 91.9214 1084.8 91.1714 1083.13 91.1714H1048.13C1034.3 91.1714 1027.38 98.4214 1027.38 112.921V164.921C1027.38 179.421 1034.3 186.671 1048.13 186.671H1062.38C1069.88 186.671 1075.63 184.671 1079.63 180.671C1083.63 176.671 1085.63 171.005 1085.63 163.671ZM1153.09 202.671H1141.84C1139.51 202.671 1138.34 201.505 1138.34 199.171V78.6714C1138.34 76.338 1139.51 75.1714 1141.84 75.1714H1153.09C1155.43 75.1714 1156.59 76.338 1156.59 78.6714V88.4214H1157.59C1162.26 79.588 1171.09 75.1714 1184.09 75.1714H1193.34C1208.01 75.1714 1218.18 80.838 1223.84 92.1714C1226.51 86.6714 1230.68 82.5047 1236.34 79.6714C1242.18 76.6714 1248.26 75.1714 1254.59 75.1714H1263.34C1274.68 75.1714 1283.51 78.4214 1289.84 84.9214C1296.18 91.4214 1299.34 100.505 1299.34 112.171V199.171C1299.34 201.505 1298.18 202.671 1295.84 202.671H1284.59C1282.26 202.671 1281.09 201.505 1281.09 199.171V112.921C1281.09 98.4214 1274.09 91.1714 1260.09 91.1714H1251.84C1244.34 91.1714 1238.51 93.3381 1234.34 97.6714C1230.34 101.838 1228.34 107.588 1228.34 114.921V199.171C1228.34 201.505 1227.18 202.671 1224.84 202.671H1213.59C1211.26 202.671 1210.09 201.505 1210.09 199.171V112.921C1210.09 98.4214 1203.09 91.1714 1189.09 91.1714H1179.84C1172.34 91.1714 1166.59 93.1714 1162.59 97.1714C1158.59 101.171 1156.59 106.838 1156.59 114.171V199.171C1156.59 201.505 1155.43 202.671 1153.09 202.671ZM1420.18 202.671H1367.18C1355.68 202.671 1346.6 199.421 1339.93 192.921C1333.43 186.421 1330.18 177.338 1330.18 165.671V112.171C1330.18 100.505 1333.43 91.4214 1339.93 84.9214C1346.6 78.4214 1355.68 75.1714 1367.18 75.1714H1388.18C1399.68 75.1714 1408.68 78.4214 1415.18 84.9214C1421.68 91.4214 1424.93 100.505 1424.93 112.171V143.921C1424.93 146.421 1423.76 147.671 1421.43 147.671H1350.68C1349.01 147.671 1348.18 148.421 1348.18 149.921V165.171C1348.18 179.671 1355.18 186.921 1369.18 186.921H1420.18C1422.51 186.921 1423.68 188.088 1423.68 190.421V199.421C1423.68 201.588 1422.51 202.671 1420.18 202.671ZM1350.68 134.421H1404.68C1406.35 134.421 1407.18 133.588 1407.18 131.921V112.671C1407.18 98.3381 1400.18 91.1714 1386.18 91.1714H1369.18C1355.18 91.1714 1348.18 98.3381 1348.18 112.671V131.921C1348.18 133.588 1349.01 134.421 1350.68 134.421Z" fill="#D9D9D9"/>
<path d="M134.542 92.9644L194.665 122.912C198.061 124.603 200.207 128.07 200.207 131.864L200.204 184.953C200.204 188.744 198.06 192.209 194.668 193.901L121.072 230.613C112.645 234.817 102.734 234.819 94.3047 230.621L24.0154 195.609C20.3223 193.77 20.3208 188.501 24.0128 186.66L80.7054 158.379M134.542 158.43L167.373 174.785M107.695 102.453L107.696 167.919M61.3706 83.282L94.3096 99.6895C102.739 103.888 112.651 103.885 121.077 99.6815L191.245 64.6775C194.935 62.837 194.936 57.5734 191.248 55.7306L116.503 18.3852C110.872 15.5715 104.244 15.5735 98.6143 18.3905L20.5704 57.4423C17.1843 59.1367 15.0455 62.5982 15.0453 66.3847L15.0425 119.48C15.0423 123.274 17.1884 126.741 20.5839 128.432L94.3097 165.155C102.739 169.354 112.651 169.351 121.077 165.147L153.951 148.748M19.2459 62.299L65.5708 85.3743M196.92 127.312L150.664 150.388M196.408 189.248L163.577 172.894" stroke="#D9D9D9" stroke-width="18"/>
</svg>
