<svg width="213" height="249" viewBox="0 0 213 249" fill="none" xmlns="http://www.w3.org/2000/svg">
<path d="M133.632 92.004L193.755 121.952C197.151 123.643 199.297 127.11 199.297 130.903L199.294 183.992C199.294 187.783 197.15 191.248 193.758 192.94L120.162 229.653C111.735 233.856 101.824 233.859 93.3945 229.66L23.1052 194.649C19.4121 192.809 19.4106 187.541 23.1026 185.699L79.7953 157.419M133.631 157.47L166.462 173.824M106.785 101.493L106.785 166.958M60.4604 82.3216L93.3994 98.7291C101.829 102.928 111.74 102.925 120.167 98.7211L190.335 63.7171C194.025 61.8766 194.026 56.6129 190.338 54.7701L115.593 17.4248C109.962 14.6111 103.334 14.6131 97.7041 17.4301L19.6603 56.4819C16.2741 58.1762 14.1353 61.6378 14.1351 65.4242L14.1323 118.52C14.1321 122.313 16.2783 125.78 19.6738 127.471L93.3995 164.195C101.829 168.393 111.74 168.39 120.167 164.187L153.041 147.787M18.3357 61.3386L64.6607 84.4138M196.01 126.352L149.754 149.427M195.498 188.288L162.667 171.934" stroke="#2B2B2B" stroke-width="18"/>
</svg>
