<svg width="1439" height="250" viewBox="0 0 1439 250" fill="none" xmlns="http://www.w3.org/2000/svg">
<path d="M262.25 161.672V156.672C262.25 153.172 264 151.422 267.5 151.422H288.75C292.25 151.422 294 153.172 294 156.672V158.672C294 165.005 295.25 169.339 297.75 171.672C300.25 174.005 304.833 175.172 311.5 175.172H323.25C329.75 175.172 334.25 173.922 336.75 171.422C339.417 168.922 340.75 164.255 340.75 157.422V154.422C340.75 149.589 338.75 145.922 334.75 143.422C330.917 140.755 326.083 139.172 320.25 138.672C314.417 138.172 308.083 137.255 301.25 135.922C294.583 134.422 288.333 132.589 282.5 130.422C276.667 128.089 271.75 123.672 267.75 117.172C263.917 110.505 262 102.005 262 91.6719V82.9219C262 69.9219 265.667 59.8385 273 52.6719C280.333 45.5052 290.5 41.9219 303.5 41.9219H328.5C341.667 41.9219 351.917 45.5052 359.25 52.6719C366.583 59.8385 370.25 69.9219 370.25 82.9219V87.6719C370.25 91.1719 368.5 92.9219 365 92.9219H343.75C340.25 92.9219 338.5 91.1719 338.5 87.6719V86.1719C338.5 79.6719 337.25 75.2552 334.75 72.9219C332.25 70.5885 327.667 69.4219 321 69.4219H311.25C304.417 69.4219 299.75 70.7552 297.25 73.4219C294.917 75.9219 293.75 80.9219 293.75 88.4219V93.1719C293.75 101.005 300.583 105.505 314.25 106.672C328.417 107.839 341 110.672 352 115.172C357.833 117.672 362.667 122.172 366.5 128.672C370.5 135.005 372.5 143.172 372.5 153.172V161.672C372.5 174.672 368.833 184.755 361.5 191.922C354.167 199.089 344 202.672 331 202.672H303.75C290.75 202.672 280.583 199.089 273.25 191.922C265.917 184.755 262.25 174.672 262.25 161.672ZM401.266 102.672H391.266C389.266 102.672 387.849 102.339 387.016 101.672C386.349 101.005 386.016 99.6719 386.016 97.6719V80.4219C386.016 76.9219 387.766 75.1719 391.266 75.1719H401.266C403.099 75.1719 404.016 74.2552 404.016 72.4219V48.6719C404.016 45.1719 405.849 43.4219 409.516 43.4219H430.516C434.016 43.4219 435.766 45.1719 435.766 48.6719V72.4219C435.766 74.2552 436.766 75.1719 438.766 75.1719H458.266C461.766 75.1719 463.516 76.9219 463.516 80.4219V97.6719C463.516 99.5052 463.099 100.839 462.266 101.672C461.599 102.339 460.266 102.672 458.266 102.672H438.766C436.766 102.672 435.766 103.589 435.766 105.422V160.672C435.766 165.839 436.932 169.589 439.266 171.922C441.599 174.089 445.432 175.172 450.766 175.172H460.766C464.266 175.172 466.016 176.922 466.016 180.422V197.672C466.016 199.505 465.599 200.839 464.766 201.672C464.099 202.339 462.766 202.672 460.766 202.672H445.516C432.349 202.672 422.099 199.172 414.766 192.172C407.599 185.172 404.016 175.172 404.016 162.172V105.422C404.016 103.589 403.099 102.672 401.266 102.672ZM531.4 202.672H525.4C512.234 202.672 502.067 199.172 494.9 192.172C487.734 185.172 484.15 175.089 484.15 161.922V115.922C484.15 102.755 487.734 92.6719 494.9 85.6719C502.067 78.6719 512.234 75.1719 525.4 75.1719H583.15C586.817 75.1719 588.65 76.9219 588.65 80.4219V197.422C588.65 200.922 586.817 202.672 583.15 202.672H562.15C558.65 202.672 556.9 200.922 556.9 197.422V189.172H555.9C554.067 193.672 550.817 197.089 546.15 199.422C541.484 201.589 536.567 202.672 531.4 202.672ZM556.9 156.172V105.422C556.9 103.589 555.9 102.672 553.9 102.672H530.4C525.067 102.672 521.317 103.839 519.15 106.172C516.984 108.339 515.9 112.089 515.9 117.422V160.422C515.9 165.755 516.984 169.589 519.15 171.922C521.317 174.089 525.067 175.172 530.4 175.172H539.65C551.15 175.172 556.9 168.839 556.9 156.172ZM697.295 180.422V197.672C697.295 199.505 696.878 200.839 696.045 201.672C695.378 202.339 694.045 202.672 692.045 202.672H654.795C641.628 202.672 631.462 199.172 624.295 192.172C617.128 185.172 613.545 175.089 613.545 161.922V115.922C613.545 102.755 617.128 92.6719 624.295 85.6719C631.462 78.6719 641.628 75.1719 654.795 75.1719H692.045C695.545 75.1719 697.295 76.9219 697.295 80.4219V97.6719C697.295 99.5052 696.878 100.839 696.045 101.672C695.378 102.339 694.045 102.672 692.045 102.672H659.795C654.628 102.672 650.878 103.839 648.545 106.172C646.378 108.339 645.295 112.089 645.295 117.422V160.422C645.295 165.755 646.378 169.589 648.545 171.922C650.878 174.089 654.628 175.172 659.795 175.172H692.045C695.545 175.172 697.295 176.922 697.295 180.422ZM791.828 75.1719H816.078C818.078 75.1719 819.411 75.7552 820.078 76.9219C820.745 78.0885 820.495 79.5885 819.328 81.4219L786.078 136.172V137.172L820.828 196.422C821.828 198.089 821.911 199.589 821.078 200.922C820.245 202.089 818.745 202.672 816.578 202.672H795.078C792.245 202.672 790.161 202.339 788.828 201.672C787.661 201.005 786.411 199.589 785.078 197.422L753.328 141.672C751.828 139.005 751.828 136.255 753.328 133.422L783.328 80.1719C785.161 76.8385 787.995 75.1719 791.828 75.1719ZM745.328 202.672H724.078C720.578 202.672 718.828 200.922 718.828 197.422V32.1719C718.828 28.6719 720.578 26.9219 724.078 26.9219H745.328C748.828 26.9219 750.578 28.6719 750.578 32.1719V197.422C750.578 200.922 748.828 202.672 745.328 202.672ZM883.234 75.1719H905.234C907.734 75.1719 908.984 76.2552 908.984 78.4219V87.6719C908.984 90.0052 907.734 91.1719 905.234 91.1719H883.234C881.734 91.1719 880.984 91.9219 880.984 93.4219V199.172C880.984 201.505 879.734 202.672 877.234 202.672H866.234C863.901 202.672 862.734 201.505 862.734 199.172V93.4219C862.734 91.9219 861.901 91.1719 860.234 91.1719H845.484C843.151 91.1719 841.984 90.0052 841.984 87.6719V78.4219C841.984 76.2552 843.151 75.1719 845.484 75.1719H860.234C861.901 75.1719 862.734 74.4219 862.734 72.9219V63.6719C862.734 51.8385 865.651 42.7552 871.484 36.4219C877.318 30.0885 885.818 26.9219 896.984 26.9219H905.484C907.818 26.9219 908.984 28.0052 908.984 30.1719V39.4219C908.984 41.7552 907.818 42.9219 905.484 42.9219H899.234C892.401 42.9219 887.651 44.6719 884.984 48.1719C882.318 51.5052 880.984 56.9219 880.984 64.4219V72.9219C880.984 74.4219 881.734 75.1719 883.234 75.1719ZM945.574 202.672H934.324C931.991 202.672 930.824 201.505 930.824 199.172V78.6719C930.824 76.3385 931.991 75.1719 934.324 75.1719H945.574C947.908 75.1719 949.074 76.3385 949.074 78.6719V88.6719H950.074C951.741 85.0052 954.908 81.8385 959.574 79.1719C964.241 76.5052 969.741 75.1719 976.074 75.1719H985.824C987.991 75.1719 989.074 76.3385 989.074 78.6719V87.9219C989.074 89.0885 988.824 90.0052 988.324 90.6719C987.824 91.1719 986.991 91.3385 985.824 91.1719H972.324C964.824 91.1719 959.074 93.4219 955.074 97.9219C951.074 102.422 949.074 108.589 949.074 116.422V199.172C949.074 201.505 947.908 202.672 945.574 202.672ZM1059.13 202.672H1046.13C1034.63 202.672 1025.55 199.422 1018.88 192.922C1012.38 186.422 1009.13 177.339 1009.13 165.672V112.172C1009.13 100.505 1012.38 91.4219 1018.88 84.9219C1025.55 78.4219 1034.63 75.1719 1046.13 75.1719H1100.38C1102.72 75.1719 1103.88 76.3385 1103.88 78.6719V199.172C1103.88 201.505 1102.72 202.672 1100.38 202.672H1089.13C1086.8 202.672 1085.63 201.505 1085.63 199.172V189.422H1084.63C1080.47 198.255 1071.97 202.672 1059.13 202.672ZM1085.63 163.672V93.4219C1085.63 91.9219 1084.8 91.1719 1083.13 91.1719H1048.13C1034.3 91.1719 1027.38 98.4219 1027.38 112.922V164.922C1027.38 179.422 1034.3 186.672 1048.13 186.672H1062.38C1069.88 186.672 1075.63 184.672 1079.63 180.672C1083.63 176.672 1085.63 171.005 1085.63 163.672ZM1153.09 202.672H1141.84C1139.51 202.672 1138.34 201.505 1138.34 199.172V78.6719C1138.34 76.3385 1139.51 75.1719 1141.84 75.1719H1153.09C1155.43 75.1719 1156.59 76.3385 1156.59 78.6719V88.4219H1157.59C1162.26 79.5885 1171.09 75.1719 1184.09 75.1719H1193.34C1208.01 75.1719 1218.18 80.8385 1223.84 92.1719C1226.51 86.6719 1230.68 82.5052 1236.34 79.6719C1242.18 76.6719 1248.26 75.1719 1254.59 75.1719H1263.34C1274.68 75.1719 1283.51 78.4219 1289.84 84.9219C1296.18 91.4219 1299.34 100.505 1299.34 112.172V199.172C1299.34 201.505 1298.18 202.672 1295.84 202.672H1284.59C1282.26 202.672 1281.09 201.505 1281.09 199.172V112.922C1281.09 98.4219 1274.09 91.1719 1260.09 91.1719H1251.84C1244.34 91.1719 1238.51 93.3385 1234.34 97.6719C1230.34 101.839 1228.34 107.589 1228.34 114.922V199.172C1228.34 201.505 1227.18 202.672 1224.84 202.672H1213.59C1211.26 202.672 1210.09 201.505 1210.09 199.172V112.922C1210.09 98.4219 1203.09 91.1719 1189.09 91.1719H1179.84C1172.34 91.1719 1166.59 93.1719 1162.59 97.1719C1158.59 101.172 1156.59 106.839 1156.59 114.172V199.172C1156.59 201.505 1155.43 202.672 1153.09 202.672ZM1420.18 202.672H1367.18C1355.68 202.672 1346.6 199.422 1339.93 192.922C1333.43 186.422 1330.18 177.339 1330.18 165.672V112.172C1330.18 100.505 1333.43 91.4219 1339.93 84.9219C1346.6 78.4219 1355.68 75.1719 1367.18 75.1719H1388.18C1399.68 75.1719 1408.68 78.4219 1415.18 84.9219C1421.68 91.4219 1424.93 100.505 1424.93 112.172V143.922C1424.93 146.422 1423.76 147.672 1421.43 147.672H1350.68C1349.01 147.672 1348.18 148.422 1348.18 149.922V165.172C1348.18 179.672 1355.18 186.922 1369.18 186.922H1420.18C1422.51 186.922 1423.68 188.089 1423.68 190.422V199.422C1423.68 201.589 1422.51 202.672 1420.18 202.672ZM1350.68 134.422H1404.68C1406.35 134.422 1407.18 133.589 1407.18 131.922V112.672C1407.18 98.3385 1400.18 91.1719 1386.18 91.1719H1369.18C1355.18 91.1719 1348.18 98.3385 1348.18 112.672V131.922C1348.18 133.589 1349.01 134.422 1350.68 134.422Z" fill="#2B2B2B"/>
<path d="M134.542 92.9649L194.665 122.913C198.061 124.604 200.207 128.071 200.207 131.864L200.204 184.953C200.204 188.744 198.06 192.209 194.668 193.901L121.072 230.614C112.645 234.817 102.734 234.82 94.3047 230.621L24.0154 195.61C20.3223 193.77 20.3208 188.502 24.0128 186.66L80.7054 158.38M134.542 158.431L167.373 174.785M107.695 102.454L107.696 167.919M61.3706 83.2825L94.3096 99.69C102.739 103.889 112.651 103.886 121.077 99.682L191.245 64.678C194.935 62.8375 194.936 57.5739 191.248 55.7311L116.503 18.3857C110.872 15.572 104.244 15.574 98.6143 18.391L20.5704 57.4428C17.1843 59.1372 15.0455 62.5987 15.0453 66.3852L15.0425 119.481C15.0423 123.274 17.1884 126.741 20.5839 128.432L94.3097 165.156C102.739 169.354 112.651 169.351 121.077 165.148L153.951 148.748M19.2459 62.2995L65.5708 85.3748M196.92 127.313L150.664 150.388M196.408 189.249L163.577 172.894" stroke="#2B2B2B" stroke-width="18"/>
</svg>
