<svg width="1449" height="250" viewBox="0 0 1449 250" fill="none" xmlns="http://www.w3.org/2000/svg">
<path d="M275.25 163.672V157.172C275.25 154.339 276.667 152.922 279.5 152.922H295.5C298.333 152.922 299.75 154.339 299.75 157.172V161.672C299.75 168.672 301.25 173.755 304.25 176.922C307.417 179.922 312.583 181.422 319.75 181.422H337C344.167 181.422 349.333 179.839 352.5 176.672C355.667 173.339 357.25 168.005 357.25 160.672V154.922C357.25 149.589 355.167 145.422 351 142.422C347 139.255 342 137.255 336 136.422C330 135.422 323.417 134.089 316.25 132.422C309.083 130.755 302.5 128.839 296.5 126.672C290.5 124.505 285.417 120.422 281.25 114.422C277.25 108.422 275.25 100.755 275.25 91.4219V80.9219C275.25 68.7552 278.667 59.2552 285.5 52.4219C292.5 45.4219 302.083 41.9219 314.25 41.9219H340.75C353.083 41.9219 362.667 45.4219 369.5 52.4219C376.5 59.2552 380 68.7552 380 80.9219V86.4219C380 89.2552 378.583 90.6719 375.75 90.6719H359.75C356.917 90.6719 355.5 89.2552 355.5 86.4219V83.1719C355.5 76.0052 353.917 70.9219 350.75 67.9219C347.75 64.7552 342.667 63.1719 335.5 63.1719H319.75C312.583 63.1719 307.417 64.8385 304.25 68.1719C301.25 71.3385 299.75 76.8385 299.75 84.6719V92.4219C299.75 99.9219 305.167 105.005 316 107.672C320.833 108.839 326.083 109.839 331.75 110.672C337.583 111.505 343.417 112.755 349.25 114.422C355.083 116.089 360.417 118.339 365.25 121.172C370.083 123.839 374 128.005 377 133.672C380 139.172 381.5 145.922 381.5 153.922V163.672C381.5 175.839 378 185.422 371 192.422C364.167 199.255 354.667 202.672 342.5 202.672H314.5C302.333 202.672 292.75 199.255 285.75 192.422C278.75 185.422 275.25 175.839 275.25 163.672ZM416.463 96.4219H404.463C402.796 96.4219 401.63 96.1719 400.963 95.6719C400.463 95.0052 400.213 93.9219 400.213 92.4219V79.4219C400.213 76.5885 401.63 75.1719 404.463 75.1719H416.463C418.13 75.1719 418.963 74.3385 418.963 72.6719V50.1719C418.963 47.3385 420.463 45.9219 423.463 45.9219H439.213C442.046 45.9219 443.463 47.3385 443.463 50.1719V72.6719C443.463 74.3385 444.38 75.1719 446.213 75.1719H469.463C472.463 75.1719 473.963 76.5885 473.963 79.4219V92.4219C473.963 95.0885 472.463 96.4219 469.463 96.4219H446.213C444.38 96.4219 443.463 97.2552 443.463 98.9219V163.172C443.463 175.339 449.713 181.422 462.213 181.422H471.963C474.963 181.422 476.463 182.839 476.463 185.672V198.672C476.463 201.339 474.963 202.672 471.963 202.672H458.463C446.13 202.672 436.463 199.339 429.463 192.672C422.463 186.005 418.963 176.589 418.963 164.422V98.9219C418.963 97.2552 418.13 96.4219 416.463 96.4219ZM546.359 202.672H536.609C524.276 202.672 514.693 199.255 507.859 192.422C501.193 185.589 497.859 176.089 497.859 163.922V113.922C497.859 101.589 501.193 92.0885 507.859 85.4219C514.693 78.5885 524.276 75.1719 536.609 75.1719H592.609C595.609 75.1719 597.109 76.5885 597.109 79.4219V198.422C597.109 201.255 595.609 202.672 592.609 202.672H576.859C574.026 202.672 572.609 201.255 572.609 198.422V189.422H571.609C567.609 198.255 559.193 202.672 546.359 202.672ZM572.609 160.172V98.9219C572.609 97.2552 571.693 96.4219 569.859 96.4219H540.109C528.109 96.4219 522.109 102.589 522.109 114.922V162.922C522.109 175.255 528.109 181.422 540.109 181.422H552.109C565.776 181.422 572.609 174.339 572.609 160.172ZM705.789 185.672V198.672C705.789 201.339 704.289 202.672 701.289 202.672H664.539C652.206 202.672 642.622 199.255 635.789 192.422C629.122 185.589 625.789 176.089 625.789 163.922V113.922C625.789 101.589 629.122 92.0885 635.789 85.4219C642.622 78.5885 652.206 75.1719 664.539 75.1719H701.289C704.289 75.1719 705.789 76.5885 705.789 79.4219V92.4219C705.789 95.0885 704.289 96.4219 701.289 96.4219H668.039C656.039 96.4219 650.039 102.589 650.039 114.922V162.922C650.039 175.255 656.039 181.422 668.039 181.422H701.289C704.289 181.422 705.789 182.839 705.789 185.672ZM802.107 75.1719H820.107C821.607 75.1719 822.607 75.6719 823.107 76.6719C823.774 77.5052 823.607 78.6719 822.607 80.1719L787.357 136.172V137.172L825.357 197.672C826.191 199.005 826.274 200.172 825.607 201.172C825.107 202.172 823.941 202.672 822.107 202.672H805.857C802.024 202.672 799.191 201.255 797.357 198.422L762.107 140.672C760.941 138.505 760.941 136.255 762.107 133.922L794.857 79.1719C796.357 76.5052 798.774 75.1719 802.107 75.1719ZM749.607 202.672H733.857C731.024 202.672 729.607 201.255 729.607 198.422V31.1719C729.607 28.3385 731.024 26.9219 733.857 26.9219H749.607C752.441 26.9219 753.857 28.3385 753.857 31.1719V198.422C753.857 201.255 752.441 202.672 749.607 202.672ZM882.121 75.1719H903.121C906.121 75.1719 907.621 76.5052 907.621 79.1719V92.1719C907.621 95.0052 906.121 96.4219 903.121 96.4219H882.121C880.454 96.4219 879.621 97.2552 879.621 98.9219V198.422C879.621 201.255 878.121 202.672 875.121 202.672H859.371C856.538 202.672 855.121 201.255 855.121 198.422V98.9219C855.121 97.2552 854.204 96.4219 852.371 96.4219H839.121C836.288 96.4219 834.871 95.0052 834.871 92.1719V79.1719C834.871 77.6719 835.121 76.6719 835.621 76.1719C836.288 75.5052 837.454 75.1719 839.121 75.1719H852.371C854.204 75.1719 855.121 74.3385 855.121 72.6719V65.4219C855.121 53.0885 858.288 43.5885 864.621 36.9219C870.954 30.2552 880.204 26.9219 892.371 26.9219H903.371C906.204 26.9219 907.621 28.2552 907.621 30.9219V43.9219C907.621 46.7552 906.204 48.1719 903.371 48.1719H895.871C889.871 48.1719 885.621 49.6719 883.121 52.6719C880.788 55.5052 879.621 60.1719 879.621 66.6719V72.6719C879.621 74.3385 880.454 75.1719 882.121 75.1719ZM947.361 202.672H931.611C928.778 202.672 927.361 201.255 927.361 198.422V79.4219C927.361 76.5885 928.778 75.1719 931.611 75.1719H947.361C950.195 75.1719 951.611 76.5885 951.611 79.4219V88.9219H952.611C954.278 84.7552 957.445 81.4219 962.111 78.9219C966.945 76.4219 972.278 75.1719 978.111 75.1719H987.361C990.195 75.1719 991.611 76.5885 991.611 79.4219V92.4219C991.611 95.5885 990.195 96.9219 987.361 96.4219H972.361C958.528 96.4219 951.611 104.005 951.611 119.172V198.422C951.611 201.255 950.195 202.672 947.361 202.672ZM1057.1 202.672H1047.35C1035.02 202.672 1025.43 199.255 1018.6 192.422C1011.93 185.589 1008.6 176.089 1008.6 163.922V113.922C1008.6 101.589 1011.93 92.0885 1018.6 85.4219C1025.43 78.5885 1035.02 75.1719 1047.35 75.1719H1103.35C1106.35 75.1719 1107.85 76.5885 1107.85 79.4219V198.422C1107.85 201.255 1106.35 202.672 1103.35 202.672H1087.6C1084.77 202.672 1083.35 201.255 1083.35 198.422V189.422H1082.35C1078.35 198.255 1069.93 202.672 1057.1 202.672ZM1083.35 160.172V98.9219C1083.35 97.2552 1082.43 96.4219 1080.6 96.4219H1050.85C1038.85 96.4219 1032.85 102.589 1032.85 114.922V162.922C1032.85 175.255 1038.85 181.422 1050.85 181.422H1062.85C1076.52 181.422 1083.35 174.339 1083.35 160.172ZM1159.03 202.672H1143.28C1140.45 202.672 1139.03 201.255 1139.03 198.422V79.4219C1139.03 76.5885 1140.45 75.1719 1143.28 75.1719H1159.03C1161.86 75.1719 1163.28 76.5885 1163.28 79.4219V88.4219H1164.28C1169.11 79.5885 1177.95 75.1719 1190.78 75.1719H1199.03C1213.53 75.1719 1223.86 80.6719 1230.03 91.6719C1232.7 86.3385 1236.78 82.2552 1242.28 79.4219C1247.78 76.5885 1253.7 75.1719 1260.03 75.1719H1268.03C1280.2 75.1719 1289.45 78.5885 1295.78 85.4219C1302.28 92.0885 1305.53 101.589 1305.53 113.922V198.422C1305.53 201.255 1304.11 202.672 1301.28 202.672H1285.28C1282.45 202.672 1281.03 201.255 1281.03 198.422V114.922C1281.03 102.589 1275.03 96.4219 1263.03 96.4219H1255.78C1241.95 96.4219 1235.03 103.672 1235.03 118.172V198.422C1235.03 201.255 1233.53 202.672 1230.53 202.672H1214.78C1211.95 202.672 1210.53 201.255 1210.53 198.422V114.922C1210.53 102.589 1204.53 96.4219 1192.53 96.4219H1183.78C1170.11 96.4219 1163.28 103.505 1163.28 117.672V198.422C1163.28 201.255 1161.86 202.672 1159.03 202.672ZM1426.06 202.672H1372.06C1359.73 202.672 1350.14 199.255 1343.31 192.422C1336.64 185.589 1333.31 176.089 1333.31 163.922V113.922C1333.31 101.589 1336.64 92.0885 1343.31 85.4219C1350.14 78.5885 1359.73 75.1719 1372.06 75.1719H1392.56C1404.89 75.1719 1414.48 78.5885 1421.31 85.4219C1428.14 92.0885 1431.56 101.589 1431.56 113.922V145.672C1431.56 148.672 1430.06 150.172 1427.06 150.172H1360.06C1358.23 150.172 1357.31 151.005 1357.31 152.672V163.422C1357.31 175.589 1363.39 181.672 1375.56 181.672H1426.06C1429.06 181.672 1430.56 183.172 1430.56 186.172V198.672C1430.56 201.339 1429.06 202.672 1426.06 202.672ZM1360.06 133.172H1404.81C1406.48 133.172 1407.31 132.339 1407.31 130.672V114.672C1407.31 108.339 1405.89 103.755 1403.06 100.922C1400.23 97.9219 1395.64 96.4219 1389.31 96.4219H1375.56C1369.23 96.4219 1364.64 97.9219 1361.81 100.922C1358.98 103.755 1357.56 108.339 1357.56 114.672V130.672C1357.56 132.339 1358.39 133.172 1360.06 133.172Z" fill="#2B2B2B"/>
<path d="M134.542 92.9649L194.665 122.913C198.061 124.604 200.207 128.071 200.207 131.864L200.204 184.953C200.204 188.744 198.06 192.209 194.668 193.901L121.072 230.614C112.645 234.817 102.734 234.82 94.3047 230.621L24.0154 195.61C20.3223 193.77 20.3208 188.502 24.0128 186.66L80.7054 158.38M134.542 158.431L167.373 174.785M107.695 102.454L107.696 167.919M61.3706 83.2825L94.3096 99.69C102.739 103.889 112.651 103.886 121.077 99.682L191.245 64.678C194.935 62.8375 194.936 57.5739 191.248 55.7311L116.503 18.3857C110.872 15.572 104.244 15.574 98.6143 18.391L20.5704 57.4428C17.1843 59.1372 15.0455 62.5987 15.0453 66.3852L15.0425 119.481C15.0423 123.274 17.1884 126.741 20.5839 128.432L94.3097 165.156C102.739 169.354 112.651 169.351 121.077 165.148L153.951 148.748M19.2459 62.2995L65.5708 85.3748M196.92 127.313L150.664 150.388M196.408 189.249L163.577 172.894" stroke="#2B2B2B" stroke-width="18"/>
</svg>
