<svg width="1449" height="250" viewBox="0 0 1449 250" fill="none" xmlns="http://www.w3.org/2000/svg">
<path d="M275.25 163.671V157.171C275.25 154.338 276.667 152.921 279.5 152.921H295.5C298.333 152.921 299.75 154.338 299.75 157.171V161.671C299.75 168.671 301.25 173.755 304.25 176.921C307.417 179.921 312.583 181.421 319.75 181.421H337C344.167 181.421 349.333 179.838 352.5 176.671C355.667 173.338 357.25 168.005 357.25 160.671V154.921C357.25 149.588 355.167 145.421 351 142.421C347 139.255 342 137.255 336 136.421C330 135.421 323.417 134.088 316.25 132.421C309.083 130.755 302.5 128.838 296.5 126.671C290.5 124.505 285.417 120.421 281.25 114.421C277.25 108.421 275.25 100.755 275.25 91.4214V80.9214C275.25 68.7547 278.667 59.2547 285.5 52.4214C292.5 45.4214 302.083 41.9214 314.25 41.9214H340.75C353.083 41.9214 362.667 45.4214 369.5 52.4214C376.5 59.2547 380 68.7547 380 80.9214V86.4214C380 89.2547 378.583 90.6714 375.75 90.6714H359.75C356.917 90.6714 355.5 89.2547 355.5 86.4214V83.1714C355.5 76.0047 353.917 70.9214 350.75 67.9214C347.75 64.7547 342.667 63.1714 335.5 63.1714H319.75C312.583 63.1714 307.417 64.838 304.25 68.1714C301.25 71.338 299.75 76.838 299.75 84.6714V92.4214C299.75 99.9214 305.167 105.005 316 107.671C320.833 108.838 326.083 109.838 331.75 110.671C337.583 111.505 343.417 112.755 349.25 114.421C355.083 116.088 360.417 118.338 365.25 121.171C370.083 123.838 374 128.005 377 133.671C380 139.171 381.5 145.921 381.5 153.921V163.671C381.5 175.838 378 185.421 371 192.421C364.167 199.255 354.667 202.671 342.5 202.671H314.5C302.333 202.671 292.75 199.255 285.75 192.421C278.75 185.421 275.25 175.838 275.25 163.671ZM416.463 96.4214H404.463C402.796 96.4214 401.63 96.1714 400.963 95.6714C400.463 95.0047 400.213 93.9214 400.213 92.4214V79.4214C400.213 76.588 401.63 75.1714 404.463 75.1714H416.463C418.13 75.1714 418.963 74.338 418.963 72.6714V50.1714C418.963 47.338 420.463 45.9214 423.463 45.9214H439.213C442.046 45.9214 443.463 47.338 443.463 50.1714V72.6714C443.463 74.338 444.38 75.1714 446.213 75.1714H469.463C472.463 75.1714 473.963 76.588 473.963 79.4214V92.4214C473.963 95.0881 472.463 96.4214 469.463 96.4214H446.213C444.38 96.4214 443.463 97.2547 443.463 98.9214V163.171C443.463 175.338 449.713 181.421 462.213 181.421H471.963C474.963 181.421 476.463 182.838 476.463 185.671V198.671C476.463 201.338 474.963 202.671 471.963 202.671H458.463C446.13 202.671 436.463 199.338 429.463 192.671C422.463 186.005 418.963 176.588 418.963 164.421V98.9214C418.963 97.2547 418.13 96.4214 416.463 96.4214ZM546.359 202.671H536.609C524.276 202.671 514.693 199.255 507.859 192.421C501.193 185.588 497.859 176.088 497.859 163.921V113.921C497.859 101.588 501.193 92.088 507.859 85.4214C514.693 78.588 524.276 75.1714 536.609 75.1714H592.609C595.609 75.1714 597.109 76.588 597.109 79.4214V198.421C597.109 201.255 595.609 202.671 592.609 202.671H576.859C574.026 202.671 572.609 201.255 572.609 198.421V189.421H571.609C567.609 198.255 559.193 202.671 546.359 202.671ZM572.609 160.171V98.9214C572.609 97.2547 571.693 96.4214 569.859 96.4214H540.109C528.109 96.4214 522.109 102.588 522.109 114.921V162.921C522.109 175.255 528.109 181.421 540.109 181.421H552.109C565.776 181.421 572.609 174.338 572.609 160.171ZM705.789 185.671V198.671C705.789 201.338 704.289 202.671 701.289 202.671H664.539C652.206 202.671 642.622 199.255 635.789 192.421C629.122 185.588 625.789 176.088 625.789 163.921V113.921C625.789 101.588 629.122 92.088 635.789 85.4214C642.622 78.588 652.206 75.1714 664.539 75.1714H701.289C704.289 75.1714 705.789 76.588 705.789 79.4214V92.4214C705.789 95.0881 704.289 96.4214 701.289 96.4214H668.039C656.039 96.4214 650.039 102.588 650.039 114.921V162.921C650.039 175.255 656.039 181.421 668.039 181.421H701.289C704.289 181.421 705.789 182.838 705.789 185.671ZM802.107 75.1714H820.107C821.607 75.1714 822.607 75.6714 823.107 76.6714C823.774 77.5047 823.607 78.6714 822.607 80.1714L787.357 136.171V137.171L825.357 197.671C826.191 199.005 826.274 200.171 825.607 201.171C825.107 202.171 823.941 202.671 822.107 202.671H805.857C802.024 202.671 799.191 201.255 797.357 198.421L762.107 140.671C760.941 138.505 760.941 136.255 762.107 133.921L794.857 79.1714C796.357 76.5047 798.774 75.1714 802.107 75.1714ZM749.607 202.671H733.857C731.024 202.671 729.607 201.255 729.607 198.421V31.1714C729.607 28.338 731.024 26.9214 733.857 26.9214H749.607C752.441 26.9214 753.857 28.338 753.857 31.1714V198.421C753.857 201.255 752.441 202.671 749.607 202.671ZM882.121 75.1714H903.121C906.121 75.1714 907.621 76.5047 907.621 79.1714V92.1714C907.621 95.0047 906.121 96.4214 903.121 96.4214H882.121C880.454 96.4214 879.621 97.2547 879.621 98.9214V198.421C879.621 201.255 878.121 202.671 875.121 202.671H859.371C856.538 202.671 855.121 201.255 855.121 198.421V98.9214C855.121 97.2547 854.204 96.4214 852.371 96.4214H839.121C836.288 96.4214 834.871 95.0047 834.871 92.1714V79.1714C834.871 77.6714 835.121 76.6714 835.621 76.1714C836.288 75.5047 837.454 75.1714 839.121 75.1714H852.371C854.204 75.1714 855.121 74.338 855.121 72.6714V65.4214C855.121 53.088 858.288 43.588 864.621 36.9214C870.954 30.2547 880.204 26.9214 892.371 26.9214H903.371C906.204 26.9214 907.621 28.2547 907.621 30.9214V43.9214C907.621 46.7547 906.204 48.1714 903.371 48.1714H895.871C889.871 48.1714 885.621 49.6714 883.121 52.6714C880.788 55.5047 879.621 60.1714 879.621 66.6714V72.6714C879.621 74.338 880.454 75.1714 882.121 75.1714ZM947.361 202.671H931.611C928.778 202.671 927.361 201.255 927.361 198.421V79.4214C927.361 76.588 928.778 75.1714 931.611 75.1714H947.361C950.195 75.1714 951.611 76.588 951.611 79.4214V88.9214H952.611C954.278 84.7547 957.445 81.4214 962.111 78.9214C966.945 76.4214 972.278 75.1714 978.111 75.1714H987.361C990.195 75.1714 991.611 76.588 991.611 79.4214V92.4214C991.611 95.588 990.195 96.9214 987.361 96.4214H972.361C958.528 96.4214 951.611 104.005 951.611 119.171V198.421C951.611 201.255 950.195 202.671 947.361 202.671ZM1057.1 202.671H1047.35C1035.02 202.671 1025.43 199.255 1018.6 192.421C1011.93 185.588 1008.6 176.088 1008.6 163.921V113.921C1008.6 101.588 1011.93 92.088 1018.6 85.4214C1025.43 78.588 1035.02 75.1714 1047.35 75.1714H1103.35C1106.35 75.1714 1107.85 76.588 1107.85 79.4214V198.421C1107.85 201.255 1106.35 202.671 1103.35 202.671H1087.6C1084.77 202.671 1083.35 201.255 1083.35 198.421V189.421H1082.35C1078.35 198.255 1069.93 202.671 1057.1 202.671ZM1083.35 160.171V98.9214C1083.35 97.2547 1082.43 96.4214 1080.6 96.4214H1050.85C1038.85 96.4214 1032.85 102.588 1032.85 114.921V162.921C1032.85 175.255 1038.85 181.421 1050.85 181.421H1062.85C1076.52 181.421 1083.35 174.338 1083.35 160.171ZM1159.03 202.671H1143.28C1140.45 202.671 1139.03 201.255 1139.03 198.421V79.4214C1139.03 76.588 1140.45 75.1714 1143.28 75.1714H1159.03C1161.86 75.1714 1163.28 76.588 1163.28 79.4214V88.4214H1164.28C1169.11 79.588 1177.95 75.1714 1190.78 75.1714H1199.03C1213.53 75.1714 1223.86 80.6714 1230.03 91.6714C1232.7 86.338 1236.78 82.2547 1242.28 79.4214C1247.78 76.588 1253.7 75.1714 1260.03 75.1714H1268.03C1280.2 75.1714 1289.45 78.588 1295.78 85.4214C1302.28 92.088 1305.53 101.588 1305.53 113.921V198.421C1305.53 201.255 1304.11 202.671 1301.28 202.671H1285.28C1282.45 202.671 1281.03 201.255 1281.03 198.421V114.921C1281.03 102.588 1275.03 96.4214 1263.03 96.4214H1255.78C1241.95 96.4214 1235.03 103.671 1235.03 118.171V198.421C1235.03 201.255 1233.53 202.671 1230.53 202.671H1214.78C1211.95 202.671 1210.53 201.255 1210.53 198.421V114.921C1210.53 102.588 1204.53 96.4214 1192.53 96.4214H1183.78C1170.11 96.4214 1163.28 103.505 1163.28 117.671V198.421C1163.28 201.255 1161.86 202.671 1159.03 202.671ZM1426.06 202.671H1372.06C1359.73 202.671 1350.14 199.255 1343.31 192.421C1336.64 185.588 1333.31 176.088 1333.31 163.921V113.921C1333.31 101.588 1336.64 92.088 1343.31 85.4214C1350.14 78.588 1359.73 75.1714 1372.06 75.1714H1392.56C1404.89 75.1714 1414.48 78.588 1421.31 85.4214C1428.14 92.088 1431.56 101.588 1431.56 113.921V145.671C1431.56 148.671 1430.06 150.171 1427.06 150.171H1360.06C1358.23 150.171 1357.31 151.005 1357.31 152.671V163.421C1357.31 175.588 1363.39 181.671 1375.56 181.671H1426.06C1429.06 181.671 1430.56 183.171 1430.56 186.171V198.671C1430.56 201.338 1429.06 202.671 1426.06 202.671ZM1360.06 133.171H1404.81C1406.48 133.171 1407.31 132.338 1407.31 130.671V114.671C1407.31 108.338 1405.89 103.755 1403.06 100.921C1400.23 97.9214 1395.64 96.4214 1389.31 96.4214H1375.56C1369.23 96.4214 1364.64 97.9214 1361.81 100.921C1358.98 103.755 1357.56 108.338 1357.56 114.671V130.671C1357.56 132.338 1358.39 133.171 1360.06 133.171Z" fill="#D9D9D9"/>
<path d="M134.542 92.9644L194.665 122.912C198.061 124.603 200.207 128.07 200.207 131.864L200.204 184.953C200.204 188.744 198.06 192.209 194.668 193.901L121.072 230.613C112.645 234.817 102.734 234.819 94.3047 230.621L24.0154 195.609C20.3223 193.77 20.3208 188.501 24.0128 186.66L80.7054 158.379M134.542 158.43L167.373 174.785M107.695 102.453L107.696 167.919M61.3706 83.282L94.3096 99.6895C102.739 103.888 112.651 103.885 121.077 99.6815L191.245 64.6775C194.935 62.837 194.936 57.5734 191.248 55.7306L116.503 18.3852C110.872 15.5715 104.244 15.5735 98.6143 18.3905L20.5704 57.4423C17.1843 59.1367 15.0455 62.5982 15.0453 66.3847L15.0425 119.48C15.0423 123.274 17.1884 126.741 20.5839 128.432L94.3097 165.155C102.739 169.354 112.651 169.351 121.077 165.147L153.951 148.748M19.2459 62.299L65.5708 85.3743M196.92 127.312L150.664 150.388M196.408 189.248L163.577 172.894" stroke="#D9D9D9" stroke-width="18"/>
</svg>
