<svg width="214" height="250" viewBox="0 0 214 250" fill="none" xmlns="http://www.w3.org/2000/svg">
<path d="M134.542 92.9644L194.665 122.912C198.061 124.603 200.207 128.07 200.207 131.864L200.204 184.953C200.204 188.744 198.06 192.209 194.668 193.901L121.072 230.613C112.645 234.817 102.734 234.819 94.3047 230.621L24.0154 195.609C20.3223 193.77 20.3208 188.501 24.0128 186.66L80.7054 158.379M134.542 158.43L167.373 174.785M107.695 102.453L107.696 167.919M61.3706 83.282L94.3096 99.6895C102.739 103.888 112.651 103.885 121.077 99.6815L191.245 64.6775C194.935 62.837 194.936 57.5734 191.248 55.7306L116.503 18.3852C110.872 15.5715 104.244 15.5735 98.6143 18.3905L20.5704 57.4423C17.1843 59.1367 15.0455 62.5982 15.0453 66.3847L15.0425 119.48C15.0423 123.274 17.1884 126.741 20.5839 128.432L94.3097 165.155C102.739 169.354 112.651 169.351 121.077 165.147L153.951 148.748M19.2459 62.299L65.5708 85.3743M196.92 127.312L150.664 150.388M196.408 189.248L163.577 172.894" stroke="#D9D9D9" stroke-width="18"/>
</svg>
