<svg width="201" height="243" viewBox="0 0 201 243" fill="none" xmlns="http://www.w3.org/2000/svg">
<path d="M104.414 2.64234C102.161 1.51687 99.5104 1.51765 97.2585 2.64447L5.33026 48.6437C2.62119 49.9993 0.910156 52.7687 0.910156 55.798V131.38C0.910156 134.411 2.62246 137.181 5.33308 138.536L97.3306 184.525C99.5827 185.651 102.233 185.65 104.485 184.524L169.332 152.101C174.652 149.441 180.91 153.309 180.91 159.256V169.71C180.91 172.74 179.198 175.51 176.488 176.865L104.487 212.866C102.235 213.992 99.5847 213.992 97.3326 212.866L12.4872 170.453C7.16807 167.794 0.910156 171.662 0.910156 177.609V187.903C0.910156 190.937 2.62704 193.711 5.34325 195.064L97.4153 240.926C99.6631 242.046 102.306 242.045 104.553 240.924L196.481 195.065C199.195 193.711 200.91 190.939 200.91 187.906V120.342C200.91 114.395 194.652 110.527 189.332 113.186L132.488 141.609C127.169 144.268 120.91 140.4 120.91 134.453V124C120.91 120.97 122.622 118.2 125.332 116.845L196.488 81.2669C199.198 79.9118 200.91 77.1417 200.91 74.1115V55.8013C200.91 52.7703 199.197 49.9996 196.486 48.6449L104.414 2.64234Z" fill="#D9D9D9"/>
</svg>
